<svg xmlns="http://www.w3.org/2000/svg" width="2186" height="939" viewBox="0 0 2186 939">
  <defs>
    <style>
      .cls-1, .cls-4 {
        fill: #fff0d8;
      }

      .cls-1, .cls-10, .cls-6, .cls-7, .cls-8 {
        fill-rule: evenodd;
      }

      .cls-2, .cls-3 {
        fill: none;
        stroke-width: 10px;
      }

      .cls-2 {
        stroke: #ffb811;
      }

      .cls-3 {
        stroke: #ffebca;
      }

      .cls-10, .cls-5 {
        fill: #ffb811;
      }

      .cls-6 {
        fill: #ffd997;
      }

      .cls-7 {
        fill: #ffecc1;
      }

      .cls-8, .cls-9 {
        fill: #fff;
      }
    </style>
  </defs>
  <g id="Artboard_1_copy" data-name="Artboard 1 copy">
    <path class="cls-1" d="M10468,477s31.5-6.092,27-51c-3.2-32.195-41-31-41-31l9-40h142l42,10,36,28s-68.9-3.115-67,31c2.8,51.6,48,50,48,50Z" transform="translate(-9176 -289)"/>
    <path id="Shape_9_copy_2" data-name="Shape 9 copy 2" class="cls-1" d="M9554.94,1117.51s38.91-7.53,33.37-63.02c-3.97-39.78-50.67-38.31-50.67-38.31l11.12-49.427h175.48l351.86,12.357,44.5,34.6-23.5,100.09Z" transform="translate(-9176 -289)"/>
    <path id="Shape_9_copy" data-name="Shape 9 copy" class="cls-1" d="M10293,886s31.5-6.092,27-51c-3.2-32.2-41-31-41-31l9-40h402l42,10,36,28s-68.9-3.115-67,31c2.8,51.6,48,50,48,50Z" transform="translate(-9176 -289)"/>
    <circle class="cls-2" cx="801.99" cy="191.188" r="62.61"/>
    <circle id="Ellipse_5_copy" data-name="Ellipse 5 copy" class="cls-3" cx="1570.25" cy="783.42" r="42.85"/>
    <rect id="Rounded_Rectangle_9" data-name="Rounded Rectangle 9" class="cls-4" x="7" y="828" width="851" height="106" rx="50" ry="50"/>
    <rect id="Rounded_Rectangle_9_copy" data-name="Rounded Rectangle 9 copy" class="cls-4" x="235" y="621" width="851" height="106" rx="50" ry="50"/>
    <rect id="Rounded_Rectangle_9_copy_2" data-name="Rounded Rectangle 9 copy 2" class="cls-4" x="661" y="407" width="1288.4" height="106" rx="50" ry="50"/>
    <rect id="Rounded_Rectangle_9_copy_3" data-name="Rounded Rectangle 9 copy 3" class="cls-4" x="1117.5" y="591" width="694.5" height="106" rx="50" ry="50"/>
    <rect id="Rounded_Rectangle_9_copy_4" data-name="Rounded Rectangle 9 copy 4" class="cls-4" x="1191.5" width="391.5" height="106" rx="50" ry="50"/>
    <path id="Rounded_Rectangle_9_copy_6" data-name="Rounded Rectangle 9 copy 6" class="cls-1" d="M10861.8,329.291h36.1a45.281,45.281,0,1,1,0,90.562h-36.1A45.281,45.281,0,0,1,10861.8,329.291Z" transform="translate(-9176 -289)"/>
    <path id="Rounded_Rectangle_9_copy_7" data-name="Rounded Rectangle 9 copy 7" class="cls-1" d="M11264.3,734.427h16.6a45.281,45.281,0,1,1,0,90.562h-16.6A45.281,45.281,0,1,1,11264.3,734.427Z" transform="translate(-9176 -289)"/>
    <rect id="Rounded_Rectangle_9_copy_5" data-name="Rounded Rectangle 9 copy 5" class="cls-4" x="1256.5" y="184" width="489.1" height="106" rx="50" ry="50"/>
    <rect id="Rounded_Rectangle_8" data-name="Rounded Rectangle 8" class="cls-5" x="2141" y="303" width="11" height="79" rx="5.5" ry="5.5"/>
    <rect id="Rounded_Rectangle_8_copy" data-name="Rounded Rectangle 8 copy" class="cls-5" x="2107" y="337" width="79" height="11" rx="5.5" ry="5.5"/>
    <path id="Shape_8_copy" data-name="Shape 8 copy" class="cls-6" d="M9932,1213l652,9-304-508Z" transform="translate(-9176 -289)"/>
    <path class="cls-7" d="M9931,1146h587l-284-509Z" transform="translate(-9176 -289)"/>
    <path id="Rounded_Rectangle_7_copy_7" data-name="Rounded Rectangle 7 copy 7" class="cls-8" d="M10237.3,831.156a8.5,8.5,0,0,1,8.5,8.5V1010.99a8.5,8.5,0,0,1-17,0V839.656A8.5,8.5,0,0,1,10237.3,831.156Z" transform="translate(-9176 -289)"/>
    <rect id="Rounded_Rectangle_7_copy_7-2" data-name="Rounded Rectangle 7 copy 7" class="cls-9" x="1052.8" y="774.44" width="17" height="52.06" rx="8.5" ry="8.5"/>
    <path id="Rounded_Rectangle_7" data-name="Rounded Rectangle 7" class="cls-10" d="M10225.3,816.156a8.5,8.5,0,0,1,8.5,8.5V995.991a8.5,8.5,0,0,1-17,0V824.656A8.5,8.5,0,0,1,10225.3,816.156Z" transform="translate(-9176 -289)"/>
    <rect id="Rounded_Rectangle_7_copy_6" data-name="Rounded Rectangle 7 copy 6" class="cls-5" x="1040.8" y="759.44" width="17" height="52.06" rx="8.5" ry="8.5"/>
    <path id="Rounded_Rectangle_7_copy_5" data-name="Rounded Rectangle 7 copy 5" class="cls-10" d="M10583.5,1183.11c0,4.69-8.3,8.37-18.5,8.22l-662.7-9.79c-10.14-.15-18.3-4.08-18.23-8.77s8.34-8.38,18.48-8.23l662.75,9.8C10575.4,1174.49,10583.6,1178.41,10583.5,1183.11Z" transform="translate(-9176 -289)"/>
    <path id="Rounded_Rectangle_7_copy_3" data-name="Rounded Rectangle 7 copy 3" class="cls-10" d="M9942.45,1085.13c4.07,2.33,6.75,5.32,5.98,6.67l-50.54,87.97c-0.77,1.34-4.7.54-8.77-1.8s-6.74-5.33-5.97-6.67l50.53-87.97C9934.46,1081.98,9938.38,1082.79,9942.45,1085.13Z" transform="translate(-9176 -289)"/>
    <path id="Rounded_Rectangle_7_copy_4" data-name="Rounded Rectangle 7 copy 4" class="cls-10" d="M10525.1,1091.13c-4,2.33-6.7,5.32-5.9,6.67l50.5,87.97c0.8,1.34,4.7.54,8.8-1.8,4-2.34,6.7-5.33,5.9-6.67l-50.5-87.97C10533.1,1087.98,10529.2,1088.79,10525.1,1091.13Z" transform="translate(-9176 -289)"/>
    <path id="Rounded_Rectangle_7_copy" data-name="Rounded Rectangle 7 copy" class="cls-10" d="M10240.9,570.58a10.56,10.56,0,0,1,3.8,14.389l-190.5,329.042a10.519,10.519,0,1,1-18.2-10.551l190.5-329.043A10.524,10.524,0,0,1,10240.9,570.58Z" transform="translate(-9176 -289)"/>
    <path id="Rounded_Rectangle_7_copy_2" data-name="Rounded Rectangle 7 copy 2" class="cls-10" d="M10267.3,634.151a10.56,10.56,0,0,0-3.8,14.389L10454,977.582a10.519,10.519,0,1,0,18.2-10.552l-190.5-329.042A10.524,10.524,0,0,0,10267.3,634.151Z" transform="translate(-9176 -289)"/>
  </g>
</svg>
