<svg xmlns="http://www.w3.org/2000/svg" viewBox="0 0 674 207.4"><defs><style>.cls-1,.cls-2{fill:#1321d3;}.cls-2{font-size:139.8px;font-family:Poppins-Black, Poppins;font-weight:800;letter-spacing:-0.1em;}.cls-3{font-size:46.2px;fill:gray;font-family:Poppins-Regular, Poppins;}</style></defs><title>swan_logo_horizontal</title><g id="Layer_2" data-name="Layer 2"><g id="Layer_1-2" data-name="Layer 1"><path class="cls-1" d="M160.44,40.43c-3.66-3-7.22-6.16-11-9-6-4.6-12.66-7.09-18.55-.35s-5.57,14.76,1,20.67c8.92,8.09,18.87,15,28.35,22.5,28.14,22.19,30.69,71.45,5,95.93-7.69,7.33-16.92,12.23-27.25,13-32.23,2.51-64.48,2.15-96.2-4.84C19,173.34,5.44,161.51,0,143.82c8.38-2.1,16.3,8.51,25.44.21-5.36-2.64-11.46-4.4-14-10.91,6.21-2.15,12.85,1.94,19.14-1.34-.45-3.48-5.37-3.82-5.1-8.39,13.67-1.14,23.16-10.29,33.37-18.53,23.92-19.3,50-22.5,72.23-9.37,11.42,6.73,18.3,17.42,24.39,29.3,6.57-16.44,3.19-32.91-8.44-43.75-6.24-5.82-13.84-9.46-21.14-13.64C111.33,59,106.4,44.19,112.65,28.77S134.46,5.21,150.12,9.46c11.07,3,15,12,17.66,21.85C168.17,36.61,164.55,38.72,160.44,40.43Z"/><path class="cls-1" d="M160.44,40.43c4.11-1.71,7.73-3.82,7.34-9.12,3.27,6,5.65,12.58,11.59,16.75,1.38,1,3.26,2.49,2.2,4.48-1.32,2.48-3.91,1.75-5.8.87C169.53,50.48,163,47.79,160.44,40.43Z"/><text class="cls-2" transform="translate(264.8 119.74)">SWAN</text><text class="cls-3" transform="translate(265 177.56)">Warehouse Portal</text></g></g></svg>