<svg xmlns="http://www.w3.org/2000/svg" viewBox="0 0 296.28 107.88"><defs><style>.cls-1{fill:#0000BF;}.cls-2{opacity:0.3;}.cls-3{fill:#1b1464;}</style></defs><title>Asset 12</title><g id="Layer_2" data-name="Layer 2"><g id="Layer_1-2" data-name="Layer 1"><path class="cls-1" d="M9.32,69.52Q.72,63.33,0,51.34H24.58c.34,4.24,2.22,6.36,5.62,6.36a5.53,5.53,0,0,0,3.18-.89,3.1,3.1,0,0,0,1.3-2.76q0-2.59-2.81-4.22a57.13,57.13,0,0,0-8.75-3.69,94.67,94.67,0,0,1-11.72-4.9,22.56,22.56,0,0,1-8-7Q.1,29.69.21,22.5a20.11,20.11,0,0,1,3.7-12.24A22.82,22.82,0,0,1,14,2.6,38.08,38.08,0,0,1,28.43,0Q42,0,49.94,6.25t8.38,17.6H33.43c-.07-2.08-.59-3.58-1.56-4.48A5,5,0,0,0,28.33,18a3.16,3.16,0,0,0-2.4,1A3.87,3.87,0,0,0,25,21.77c0,1.66.91,3,2.75,4.11a63.44,63.44,0,0,0,8.8,3.91,99.37,99.37,0,0,1,11.51,5,24.49,24.49,0,0,1,7.87,6.67,16.92,16.92,0,0,1,3.33,10.73,21.84,21.84,0,0,1-13,20.51,34.8,34.8,0,0,1-15.1,3Q17.91,75.71,9.32,69.52Z"/><path class="cls-1" d="M163.19,1.25,146.32,75H117.58L109,33.12,100.5,75H71.76L54.88,1.25H79.77L86.44,47.7l10-46.45h25.2l10,46.45L138.3,1.25Z"/><path class="cls-1" d="M202.39,63.84H177.81L174.17,75H149.9l27-73.73h26.66L230.41,75H206Zm-5.62-17.39L190.1,25.93l-6.66,20.52Z"/><path class="cls-1" d="M295.91,75H272.79L248.32,37.91V75H225.2V1.25h23.12L272.79,39V1.25h23.12Z"/><g class="cls-2"><path class="cls-3" d="M27.93,86.75l-6.06,20.92H18.8L13.94,90.83l-5,16.84-3,0L0,86.75H2.92l4.56,17.74,5-17.74h3.06l4.81,17.68L25,86.75Z"/><path class="cls-3" d="M43.3,103H34.18l-1.68,4.65H29.61l7.57-20.8h3.15l7.54,20.8H45Zm-.78-2.22L38.74,90.23,35,100.8Z"/><path class="cls-3" d="M62.19,107.67l-5-8.55H53.9v8.55H51.17V86.75h6.75a9,9,0,0,1,4,.81,5.65,5.65,0,0,1,2.45,2.19,6.11,6.11,0,0,1,.81,3.15,5.87,5.87,0,0,1-5,6l5.25,8.76ZM53.9,96.93h4a4.57,4.57,0,0,0,3.34-1.1,3.94,3.94,0,0,0,1.11-2.93A3.74,3.74,0,0,0,61.27,90a4.76,4.76,0,0,0-3.35-1h-4Z"/><path class="cls-3" d="M72.16,89v7h7.62v2.25H72.16v7.2h8.52v2.25H69.42v-21H80.68V89Z"/><path class="cls-3" d="M101,86.75v20.92H98.22V98.19H87.56v9.48H84.83V86.75h2.73v9.19H98.22V86.75Z"/><path class="cls-3" d="M109.78,106.52a9.94,9.94,0,0,1-3.8-3.81,11.54,11.54,0,0,1,0-11,10,10,0,0,1,3.8-3.82,11.1,11.1,0,0,1,10.65,0,10,10,0,0,1,3.79,3.8,11.75,11.75,0,0,1,0,11,10,10,0,0,1-3.79,3.8,11.1,11.1,0,0,1-10.65,0Zm9.26-2a7.18,7.18,0,0,0,2.76-2.91,10,10,0,0,0,0-8.78,7.26,7.26,0,0,0-2.75-2.9,8.2,8.2,0,0,0-7.92,0,7.26,7.26,0,0,0-2.75,2.9,10,10,0,0,0,0,8.78,7.18,7.18,0,0,0,2.76,2.91,8.16,8.16,0,0,0,7.9,0Z"/><path class="cls-3" d="M131.87,86.75V100a5.6,5.6,0,0,0,1.37,4.14,6,6,0,0,0,7.57,0,5.6,5.6,0,0,0,1.36-4.14V86.75h2.73V100a8.56,8.56,0,0,1-1.05,4.4A6.57,6.57,0,0,1,141,107a9.68,9.68,0,0,1-8,0,6.49,6.49,0,0,1-2.82-2.65,8.66,8.66,0,0,1-1-4.4V86.75Z"/><path class="cls-3" d="M152.39,107.15a6.16,6.16,0,0,1-2.56-2,5.24,5.24,0,0,1-1-3h2.91a3.84,3.84,0,0,0,1.21,2.48,4.39,4.39,0,0,0,3.11,1,4.55,4.55,0,0,0,3.08-1,3.18,3.18,0,0,0,1.13-2.51,2.8,2.8,0,0,0-.67-2A4.15,4.15,0,0,0,158,99a25.78,25.78,0,0,0-2.67-.84A23.61,23.61,0,0,1,152,97.08a5.35,5.35,0,0,1-2.13-1.7,5,5,0,0,1-.88-3.11,5.38,5.38,0,0,1,.87-3,5.65,5.65,0,0,1,2.44-2,8.66,8.66,0,0,1,3.62-.72A7.59,7.59,0,0,1,160.74,88a5.44,5.44,0,0,1,2.12,3.9h-3a3.24,3.24,0,0,0-1.27-2.11,4.42,4.42,0,0,0-2.94-.92,4.26,4.26,0,0,0-2.79.89,3,3,0,0,0-1.08,2.47,2.68,2.68,0,0,0,.64,1.86,4.21,4.21,0,0,0,1.6,1.1c.63.25,1.51.54,2.65.86A25.23,25.23,0,0,1,160,97.12a5.55,5.55,0,0,1,2.16,1.71,5,5,0,0,1,.9,3.14,5.51,5.51,0,0,1-.81,2.88,6,6,0,0,1-2.4,2.19,8,8,0,0,1-3.76.84A9,9,0,0,1,152.39,107.15Z"/><path class="cls-3" d="M169.82,89v7h7.63v2.25h-7.63v7.2h8.53v2.25H167.09v-21h11.26V89Z"/><path class="cls-3" d="M202.71,97.21c-1.19,1.15-3,1.73-5.45,1.73h-4v8.73h-2.73V86.75h6.75a7.65,7.65,0,0,1,5.39,1.71,6.17,6.17,0,0,1,.06,8.75Zm-2.08-1.51a3.67,3.67,0,0,0,1.08-2.83q0-3.87-4.45-3.87h-4v7.69h4A4.88,4.88,0,0,0,200.63,95.7Z"/><path class="cls-3" d="M212.07,106.52a9.94,9.94,0,0,1-3.8-3.81,11.54,11.54,0,0,1,0-11,10,10,0,0,1,3.8-3.82,11.1,11.1,0,0,1,10.65,0,9.88,9.88,0,0,1,3.79,3.8,11.75,11.75,0,0,1,0,11,9.88,9.88,0,0,1-3.79,3.8,11.1,11.1,0,0,1-10.65,0Zm9.26-2a7.18,7.18,0,0,0,2.76-2.91,10,10,0,0,0,0-8.78,7.26,7.26,0,0,0-2.75-2.9,8.2,8.2,0,0,0-7.92,0,7.26,7.26,0,0,0-2.75,2.9,10,10,0,0,0,0,8.78,7.18,7.18,0,0,0,2.76,2.91,8.16,8.16,0,0,0,7.9,0Z"/><path class="cls-3" d="M242.51,107.67l-5-8.55h-3.31v8.55h-2.73V86.75h6.76a8.94,8.94,0,0,1,4,.81,5.6,5.6,0,0,1,2.45,2.19,6.11,6.11,0,0,1,.81,3.15,6.18,6.18,0,0,1-1.24,3.82,6.1,6.1,0,0,1-3.74,2.19l5.25,8.76Zm-8.29-10.74h4a4.56,4.56,0,0,0,3.33-1.1,3.94,3.94,0,0,0,1.11-2.93,3.74,3.74,0,0,0-1.1-2.88,4.75,4.75,0,0,0-3.34-1h-4Z"/><path class="cls-3" d="M262.63,86.75V89h-5.71v18.7h-2.73V89h-5.74V86.75Z"/><path class="cls-3" d="M278.36,103h-9.13l-1.68,4.65h-2.88l7.56-20.8h3.16l7.53,20.8H280Zm-.78-2.22-3.79-10.57L270,100.8Z"/><path class="cls-3" d="M289,105.45h7.32v2.22H286.22V86.75H289Z"/></g></g></g></svg>