<svg xmlns="http://www.w3.org/2000/svg" viewBox="0 0 304 292.84"><defs><style>.cls-1{opacity:0.07;}.cls-2{fill:#1321d3;}.cls-3{fill:#0000BF;}.cls-4{opacity:0.4;}.cls-5{fill:#1b1464;}</style></defs><title>Asset 13</title><g id="Layer_2" data-name="Layer 2"><g id="Layer_1-2" data-name="Layer 1"><g class="cls-1"><path class="cls-2" d="M266.52,53.32c-6.08-5-12-10.24-18.26-15-10-7.63-21-11.77-30.8-.57S208.2,62.26,219,72.09c14.82,13.43,31.36,25,47.1,37.37,46.74,36.86,51,118.7,8.36,159.35-12.76,12.18-28.1,20.33-45.26,21.67-53.53,4.17-107.11,3.56-159.8-8.05C31.6,274.1,9,254.44,0,225.07c13.92-3.49,27.07,14.13,42.27.35-8.91-4.39-19-7.31-23.24-18.13,10.33-3.57,21.36,3.22,31.8-2.24-.74-5.76-8.91-6.33-8.46-13.93,22.7-1.89,38.47-17.09,55.42-30.77,39.74-32.07,83.06-37.38,120-15.58,19,11.19,30.41,28.95,40.51,48.68,10.92-27.31,5.31-54.67-14-72.67-10.37-9.67-23-15.72-35.13-22.67-24.21-13.88-32.4-38.55-22-64.17S223.37-5.19,249.37,1.87c18.4,5,24.86,20,29.34,36.3C279.37,47,273.34,50.47,266.52,53.32Z"/><path class="cls-2" d="M266.52,53.32c6.82-2.85,12.85-6.35,12.19-15.15,5.44,10,9.39,20.88,19.26,27.82,2.29,1.61,5.41,4.14,3.65,7.44-2.2,4.12-6.49,2.91-9.63,1.44C281.61,70,270.73,65.54,266.52,53.32Z"/></g><path class="cls-3" d="M13.36,173Q4.78,166.78,4,154.79H28.62q.52,6.36,5.62,6.36a5.53,5.53,0,0,0,3.18-.89,3.1,3.1,0,0,0,1.3-2.76c0-1.73-.93-3.14-2.81-4.22a56.69,56.69,0,0,0-8.75-3.69,93.81,93.81,0,0,1-11.71-4.9,22.59,22.59,0,0,1-8-7Q4.15,133.14,4.25,126A20.13,20.13,0,0,1,8,113.71a22.82,22.82,0,0,1,10.1-7.66,38.12,38.12,0,0,1,14.42-2.6Q46,103.45,54,109.7t8.38,17.6H37.47q-.11-3.12-1.56-4.48a5,5,0,0,0-3.54-1.35,3.17,3.17,0,0,0-2.4,1,3.87,3.87,0,0,0-.93,2.76c0,1.66.92,3,2.76,4.11a62.89,62.89,0,0,0,8.8,3.91,98.26,98.26,0,0,1,11.51,5A24.2,24.2,0,0,1,60,144.9a16.92,16.92,0,0,1,3.33,10.73A22.51,22.51,0,0,1,60,167.76a22.26,22.26,0,0,1-9.69,8.38,34.77,34.77,0,0,1-15.1,3Q22,179.16,13.36,173Z"/><path class="cls-3" d="M167.24,104.7l-16.87,73.74H121.62l-8.54-41.87-8.54,41.87H75.8L58.93,104.7H83.82l6.66,46.45,10-46.45h25.2l10,46.45,6.67-46.45Z"/><path class="cls-3" d="M206.43,167.29H181.86l-3.65,11.15H154l27-73.74h26.66l26.87,73.74H210.08Zm-5.62-17.39-6.67-20.52-6.66,20.52Z"/><path class="cls-3" d="M300,178.44H276.84l-24.48-37.08v37.08H229.24V104.7h23.12l24.48,37.7V104.7H300Z"/><g class="cls-4"><path class="cls-5" d="M31,194.21l-6.11,21.07H21.78l-4.9-17-5.08,17-3.05,0-5.9-21.1H5.79l4.59,17.86,5.08-17.86h3.08L23.38,212,28,194.21Z"/><path class="cls-5" d="M46.44,210.59H37.25l-1.69,4.69h-2.9l7.62-20.95h3.17L51,215.28h-2.9Zm-.78-2.23-3.81-10.64L38,208.36Z"/><path class="cls-5" d="M65.46,215.28l-5-8.62H57.11v8.62H54.36V194.21h6.8a9.09,9.09,0,0,1,4,.81,5.73,5.73,0,0,1,2.46,2.21,6.12,6.12,0,0,1,.82,3.18,5.9,5.9,0,0,1-5,6l5.29,8.83Zm-8.35-10.82h4a4.58,4.58,0,0,0,3.36-1.11,4,4,0,0,0,1.12-2.94,3.78,3.78,0,0,0-1.11-2.91,4.8,4.8,0,0,0-3.37-1h-4Z"/><path class="cls-5" d="M75.49,196.45v7h7.68v2.27H75.49V213h8.59v2.27H72.74v-21.1H84.08v2.27Z"/><path class="cls-5" d="M104.48,194.21v21.07h-2.75v-9.55H91v9.55H88.25V194.21H91v9.25h10.73v-9.25Z"/><path class="cls-5" d="M113.37,214.11a10,10,0,0,1-3.83-3.83,11.7,11.7,0,0,1,0-11.1,10.09,10.09,0,0,1,3.83-3.84,11.19,11.19,0,0,1,10.73,0,10,10,0,0,1,3.81,3.83,11.81,11.81,0,0,1,0,11.12,10,10,0,0,1-3.81,3.82,11.12,11.12,0,0,1-10.73,0Zm9.32-2a7.15,7.15,0,0,0,2.78-2.93,10.09,10.09,0,0,0,0-8.84,7.27,7.27,0,0,0-2.76-2.92,8.31,8.31,0,0,0-8,0A7.36,7.36,0,0,0,112,200.3a10.18,10.18,0,0,0,0,8.84,7.22,7.22,0,0,0,2.78,2.93,8.19,8.19,0,0,0,8,0Z"/><path class="cls-5" d="M135.62,194.21v13.33a5.63,5.63,0,0,0,1.37,4.17,6,6,0,0,0,7.62,0,5.63,5.63,0,0,0,1.37-4.17V194.21h2.75v13.3a8.67,8.67,0,0,1-1,4.43,6.63,6.63,0,0,1-2.86,2.67,9.69,9.69,0,0,1-8.07,0,6.47,6.47,0,0,1-2.84-2.67,8.67,8.67,0,0,1-1-4.43v-13.3Z"/><path class="cls-5" d="M156.28,214.75a6.21,6.21,0,0,1-2.59-2.06,5.28,5.28,0,0,1-1-3h2.94a3.9,3.9,0,0,0,1.22,2.49,4.38,4.38,0,0,0,3.13,1,4.56,4.56,0,0,0,3.1-1,3.21,3.21,0,0,0,1.13-2.52,2.9,2.9,0,0,0-.66-2,4.31,4.31,0,0,0-1.67-1.15,25.6,25.6,0,0,0-2.69-.84,25.25,25.25,0,0,1-3.34-1.09,5.32,5.32,0,0,1-2.14-1.71,5,5,0,0,1-.89-3.13,5.45,5.45,0,0,1,.87-3.05,5.78,5.78,0,0,1,2.47-2.06,8.69,8.69,0,0,1,3.64-.72,7.62,7.62,0,0,1,4.85,1.48,5.47,5.47,0,0,1,2.13,3.93h-3a3.26,3.26,0,0,0-1.27-2.13,4.48,4.48,0,0,0-3-.93,4.3,4.3,0,0,0-2.82.9,3,3,0,0,0-1.08,2.49,2.65,2.65,0,0,0,.65,1.87,4,4,0,0,0,1.6,1.11c.63.25,1.53.54,2.67.86a25.48,25.48,0,0,1,3.36,1.13,5.67,5.67,0,0,1,2.18,1.73,5,5,0,0,1,.9,3.16,5.6,5.6,0,0,1-.81,2.9,6,6,0,0,1-2.42,2.2,7.93,7.93,0,0,1-3.78.85A9,9,0,0,1,156.28,214.75Z"/><path class="cls-5" d="M173.82,196.45v7h7.68v2.27h-7.68V213h8.59v2.27H171.07v-21.1h11.34v2.27Z"/><path class="cls-5" d="M206.94,204.74q-1.8,1.74-5.49,1.74h-4v8.8h-2.75V194.21h6.8a7.71,7.71,0,0,1,5.43,1.72,6.22,6.22,0,0,1,.06,8.81Zm-2.1-1.52a3.68,3.68,0,0,0,1.09-2.84c0-2.6-1.5-3.9-4.48-3.9h-4v7.73h4A4.94,4.94,0,0,0,204.84,203.22Z"/><path class="cls-5" d="M216.35,214.11a10,10,0,0,1-3.82-3.83,11.63,11.63,0,0,1,0-11.1,10.13,10.13,0,0,1,3.82-3.84,11.21,11.21,0,0,1,10.74,0,9.92,9.92,0,0,1,3.8,3.83,11.81,11.81,0,0,1,0,11.12,9.89,9.89,0,0,1-3.8,3.82,11.14,11.14,0,0,1-10.74,0Zm9.33-2a7.22,7.22,0,0,0,2.78-2.93,10.18,10.18,0,0,0,0-8.84,7.36,7.36,0,0,0-2.77-2.92,8.31,8.31,0,0,0-8,0A7.34,7.34,0,0,0,215,200.3a10.18,10.18,0,0,0,0,8.84,7.15,7.15,0,0,0,2.78,2.93,8.19,8.19,0,0,0,8,0Z"/><path class="cls-5" d="M247,215.28l-5-8.62h-3.33v8.62h-2.75V194.21h6.8a9.12,9.12,0,0,1,4,.81,5.73,5.73,0,0,1,2.46,2.21,6.12,6.12,0,0,1,.82,3.18,5.93,5.93,0,0,1-5,6l5.29,8.83Zm-8.35-10.82h4.05a4.6,4.6,0,0,0,3.36-1.11,4,4,0,0,0,1.12-2.94,3.78,3.78,0,0,0-1.11-2.91,4.82,4.82,0,0,0-3.37-1h-4.05Z"/><path class="cls-5" d="M267.26,194.21v2.24h-5.74v18.83h-2.76V196.45H253v-2.24Z"/><path class="cls-5" d="M283.1,210.59h-9.19l-1.69,4.69h-2.91l7.62-20.95h3.17l7.59,20.95h-2.9Zm-.79-2.23-3.81-10.64-3.81,10.64Z"/><path class="cls-5" d="M293.77,213h7.37v2.24H291V194.21h2.75Z"/></g></g></g></svg>