<svg xmlns="http://www.w3.org/2000/svg" viewBox="0 0 295.91 97.58"><defs><style>.cls-1{fill:#0000bf;}.cls-2{opacity:0.53;}</style></defs><title>Asset 16</title><g id="Layer_2" data-name="Layer 2"><g id="Layer_1-2" data-name="Layer 1"><path class="cls-1" d="M9.32,69.52Q.72,63.33,0,51.34H24.58c.34,4.24,2.22,6.36,5.62,6.36a5.53,5.53,0,0,0,3.18-.89,3.1,3.1,0,0,0,1.3-2.76q0-2.59-2.81-4.22a57.13,57.13,0,0,0-8.75-3.69,94.67,94.67,0,0,1-11.72-4.9,22.56,22.56,0,0,1-8-7Q.1,29.69.21,22.5a20.11,20.11,0,0,1,3.7-12.24A22.82,22.82,0,0,1,14,2.6,38.08,38.08,0,0,1,28.43,0Q42,0,49.94,6.25t8.38,17.6H33.43c-.07-2.08-.59-3.58-1.56-4.48A5,5,0,0,0,28.33,18a3.16,3.16,0,0,0-2.4,1A3.87,3.87,0,0,0,25,21.77c0,1.66.91,3,2.75,4.11a63.44,63.44,0,0,0,8.8,3.91,99.37,99.37,0,0,1,11.51,5,24.49,24.49,0,0,1,7.87,6.67,16.92,16.92,0,0,1,3.33,10.73,21.84,21.84,0,0,1-13,20.51,34.8,34.8,0,0,1-15.1,3Q17.91,75.71,9.32,69.52Z"/><path class="cls-1" d="M163.19,1.25,146.32,75H117.58L109,33.12,100.5,75H71.76L54.88,1.25H79.77L86.44,47.7l10-46.45h25.2l10,46.45L138.3,1.25Z"/><path class="cls-1" d="M202.39,63.84H177.81L174.17,75H149.9l27-73.73h26.66L230.41,75H206Zm-5.62-17.39L190.1,25.93l-6.66,20.52Z"/><path class="cls-1" d="M295.91,75H272.79L248.32,37.91V75H225.2V1.25h23.12L272.79,39V1.25h23.12Z"/><g class="cls-2"><path class="cls-1" d="M1.57,97.32V82.69H3.34V89.2h7.81V82.69h1.77V97.32H11.15V90.78H3.34v6.54Z"/><path class="cls-1" d="M26.07,82.69h1.77v9.69a5.07,5.07,0,0,1-.7,2.67,4.88,4.88,0,0,1-2,1.85,6.32,6.32,0,0,1-3,.68,6.32,6.32,0,0,1-3-.68,4.91,4.91,0,0,1-2-1.85,5.07,5.07,0,0,1-.71-2.67V82.69h1.78v9.54a3.76,3.76,0,0,0,.47,1.91,3.38,3.38,0,0,0,1.34,1.31,4.46,4.46,0,0,0,2.1.47,4.4,4.4,0,0,0,2.1-.47,3.34,3.34,0,0,0,1.35-1.31,3.86,3.86,0,0,0,.47-1.91Z"/><path class="cls-1" d="M31.38,82.69H33.5l5,12.15h.17l5-12.15h2.11V97.32H44.07V86.2h-.14L39.36,97.32h-1.6L33.18,86.2H33V97.32H31.38Z"/><path class="cls-1" d="M49.88,97.32H48l5.37-14.63h1.83l5.37,14.63H58.74L54.36,85h-.11Zm.68-5.72h7.49v1.58H50.56Z"/><path class="cls-1" d="M74.49,82.69V97.32H72.77l-8-11.49h-.15V97.32H62.88V82.69H64.6l8,11.52h.14V82.69Z"/><path class="cls-1" d="M79.8,82.69V97.32H78V82.69Z"/><path class="cls-1" d="M82.54,84.26V82.69h11v1.57h-4.6V97.32H87.15V84.26Z"/><path class="cls-1" d="M96.27,97.32V82.69h8.83v1.57H98V89.2h6.6v1.58H98v5h7.17v1.57Z"/><path class="cls-1" d="M108.3,97.32V82.69h4.94a6,6,0,0,1,2.82.58,3.82,3.82,0,0,1,1.63,1.6,4.92,4.92,0,0,1,.53,2.31,4.86,4.86,0,0,1-.53,2.29A3.75,3.75,0,0,1,116.06,91a6,6,0,0,1-2.79.56h-4V90h3.94a4.35,4.35,0,0,0,1.89-.34,2.21,2.21,0,0,0,1.05-1,3.74,3.74,0,0,0,0-3,2.26,2.26,0,0,0-1-1,4.28,4.28,0,0,0-1.91-.36h-3.11V97.32Zm6.89-6.57,3.6,6.57h-2.06l-3.55-6.57Z"/><path class="cls-1" d="M122.93,82.69V97.32h-1.77V82.69Z"/><path class="cls-1" d="M127.08,97.32h-1.86l5.37-14.63h1.83l5.37,14.63h-1.85L131.56,85h-.11Zm.68-5.72h7.49v1.58h-7.49Z"/><path class="cls-1" d="M151.69,82.69V97.32H150l-8-11.49h-.15V97.32h-1.77V82.69h1.72l8,11.52h.14V82.69Z"/><path class="cls-1" d="M172.66,87.26h-1.77a3.57,3.57,0,0,0-.54-1.34,3.85,3.85,0,0,0-.95-1,4.18,4.18,0,0,0-1.22-.59,4.69,4.69,0,0,0-1.4-.2,4.44,4.44,0,0,0-2.41.67,4.65,4.65,0,0,0-1.71,2,8.47,8.47,0,0,0,0,6.41,4.71,4.71,0,0,0,1.71,2,4.44,4.44,0,0,0,2.41.67,4.69,4.69,0,0,0,1.4-.2,4.18,4.18,0,0,0,1.22-.59,3.85,3.85,0,0,0,.95-1,3.7,3.7,0,0,0,.54-1.34h1.77a5.87,5.87,0,0,1-.72,2,5.6,5.6,0,0,1-3.08,2.44,6.76,6.76,0,0,1-2.08.32,6.12,6.12,0,0,1-3.33-.91,6.28,6.28,0,0,1-2.3-2.6,10.08,10.08,0,0,1,0-8,6.28,6.28,0,0,1,2.3-2.6,6.12,6.12,0,0,1,3.33-.91,6.76,6.76,0,0,1,2.08.32,5.6,5.6,0,0,1,3.08,2.44A5.87,5.87,0,0,1,172.66,87.26Z"/><path class="cls-1" d="M187.87,90a8.92,8.92,0,0,1-.84,4,6.25,6.25,0,0,1-2.29,2.6,6.55,6.55,0,0,1-6.66,0,6.25,6.25,0,0,1-2.29-2.6,10,10,0,0,1,0-8,6.25,6.25,0,0,1,2.29-2.6,6.55,6.55,0,0,1,6.66,0A6.25,6.25,0,0,1,187,86,8.9,8.9,0,0,1,187.87,90Zm-1.72,0a7.33,7.33,0,0,0-.63-3.2,4.58,4.58,0,0,0-1.71-2,4.63,4.63,0,0,0-4.8,0,4.58,4.58,0,0,0-1.71,2,8.47,8.47,0,0,0,0,6.41,4.64,4.64,0,0,0,1.71,2,4.63,4.63,0,0,0,4.8,0,4.64,4.64,0,0,0,1.71-2A7.35,7.35,0,0,0,186.15,90Z"/><path class="cls-1" d="M202.45,82.69V97.32h-1.72l-8-11.49h-.15V97.32h-1.77V82.69h1.72l8,11.52h.14V82.69Z"/><path class="cls-1" d="M214,86.35a2.22,2.22,0,0,0-1-1.69,4,4,0,0,0-2.24-.6,4.23,4.23,0,0,0-1.7.31,2.7,2.7,0,0,0-1.13.87,2.05,2.05,0,0,0-.4,1.25,1.73,1.73,0,0,0,.28,1,2.53,2.53,0,0,0,.72.7,5.68,5.68,0,0,0,.93.45c.33.11.63.21.9.28l1.48.4c.38.1.81.24,1.28.41a6.28,6.28,0,0,1,1.35.72,3.72,3.72,0,0,1,1.07,1.16,3.35,3.35,0,0,1,.42,1.74,3.88,3.88,0,0,1-.62,2.14,4.18,4.18,0,0,1-1.8,1.52,6.56,6.56,0,0,1-2.87.57,6.67,6.67,0,0,1-2.72-.51,4.41,4.41,0,0,1-1.8-1.41,4.12,4.12,0,0,1-.74-2.11h1.83a2.33,2.33,0,0,0,.56,1.37,3,3,0,0,0,1.25.8,5,5,0,0,0,1.62.26,4.73,4.73,0,0,0,1.82-.33,3.2,3.2,0,0,0,1.28-.93,2.17,2.17,0,0,0,.47-1.4,1.73,1.73,0,0,0-.4-1.19,3.09,3.09,0,0,0-1.08-.74,10.89,10.89,0,0,0-1.43-.5l-1.8-.51A6.72,6.72,0,0,1,206.76,89a3.12,3.12,0,0,1-1-2.4,3.52,3.52,0,0,1,.67-2.14,4.5,4.5,0,0,1,1.8-1.43,6.57,6.57,0,0,1,5.05,0A4.49,4.49,0,0,1,215,84.37a3.48,3.48,0,0,1,.68,2Z"/><path class="cls-1" d="M231.17,90a8.92,8.92,0,0,1-.84,4,6.25,6.25,0,0,1-2.29,2.6,6.55,6.55,0,0,1-6.66,0,6.32,6.32,0,0,1-2.29-2.6,10,10,0,0,1,0-8,6.32,6.32,0,0,1,2.29-2.6,6.55,6.55,0,0,1,6.66,0,6.25,6.25,0,0,1,2.29,2.6A8.9,8.9,0,0,1,231.17,90Zm-1.71,0a7.19,7.19,0,0,0-.64-3.2,4.63,4.63,0,0,0-1.7-2,4.65,4.65,0,0,0-4.81,0,4.58,4.58,0,0,0-1.71,2,8.47,8.47,0,0,0,0,6.41,4.64,4.64,0,0,0,1.71,2,4.65,4.65,0,0,0,4.81,0,4.69,4.69,0,0,0,1.7-2A7.2,7.2,0,0,0,229.46,90Z"/><path class="cls-1" d="M234.14,97.32V82.69h5a6,6,0,0,1,2.81.58,3.71,3.71,0,0,1,1.63,1.6,4.8,4.8,0,0,1,.53,2.31,4.75,4.75,0,0,1-.53,2.29A3.68,3.68,0,0,1,241.91,91a6,6,0,0,1-2.79.56h-4V90h3.94a4.41,4.41,0,0,0,1.89-.34,2.14,2.14,0,0,0,1-1,3.23,3.23,0,0,0,.33-1.51,3.39,3.39,0,0,0-.33-1.54,2.26,2.26,0,0,0-1.05-1,4.31,4.31,0,0,0-1.91-.36h-3.11V97.32ZM241,90.75l3.6,6.57h-2L239,90.75Z"/><path class="cls-1" d="M246.21,84.26V82.69h11v1.57h-4.6V97.32h-1.77V84.26Z"/><path class="cls-1" d="M261.7,82.69V97.32h-1.78V82.69Z"/><path class="cls-1" d="M274.84,82.69h1.78v9.69a5.07,5.07,0,0,1-.71,2.67,4.91,4.91,0,0,1-2,1.85,7,7,0,0,1-6,0,4.94,4.94,0,0,1-2-1.85,5.16,5.16,0,0,1-.7-2.67V82.69H267v9.54a3.86,3.86,0,0,0,.47,1.91,3.47,3.47,0,0,0,1.35,1.31,4.93,4.93,0,0,0,4.2,0,3.41,3.41,0,0,0,1.35-1.31,3.86,3.86,0,0,0,.46-1.91Z"/><path class="cls-1" d="M280.16,82.69h2.12l5,12.15h.17l5-12.15h2.12V97.32h-1.66V86.2h-.14l-4.58,11.12h-1.6L282,86.2h-.14V97.32h-1.66Z"/></g></g></g></svg>