<svg xmlns="http://www.w3.org/2000/svg" viewBox="0 0 336 417.56"><defs><style>.cls-1,.cls-2{fill:#1321d3;}.cls-2{font-size:98.1px;font-family:Poppins-Black, Poppins;font-weight:800;letter-spacing:-0.1em;}.cls-3,.cls-4{font-size:37.96px;font-family:Poppins-Regular, Poppins;}.cls-3{fill:#1b1464;}.cls-4{fill:#999;}</style></defs><title>swan_logo</title><g id="Layer_2" data-name="Layer 2"><g id="Layer_1-2" data-name="Layer 1"><path class="cls-1" d="M243.48,35.14c-4-3.3-7.9-6.74-12-9.88-6.63-5-13.86-7.76-20.31-.38S205,41,212.19,47.51c9.76,8.86,20.66,16.46,31,24.64,30.8,24.29,33.61,78.23,5.51,105-8.41,8-18.52,13.39-29.83,14.27-35.28,2.76-70.6,2.35-105.33-5.3-24.93-5.49-39.81-18.45-45.76-37.81,9.17-2.3,17.84,9.32,27.86.23-5.87-2.89-12.56-4.82-15.32-11.95,6.81-2.35,14.08,2.13,21-1.47-.49-3.8-5.87-4.17-5.58-9.18,15-1.25,25.36-11.27,36.53-20.29C158.46,84.55,187,81.05,211.36,95.42c12.5,7.38,20,19.08,26.7,32.08,7.2-18,3.49-36-9.24-47.89-6.84-6.38-15.15-10.36-23.15-15-16-9.14-21.36-25.4-14.52-42.29S215-3.42,232.18,1.23c12.12,3.29,16.38,13.16,19.33,23.93C252,31,248,33.26,243.48,35.14Z"/><path class="cls-1" d="M243.48,35.14c4.5-1.88,8.47-4.18,8-10,3.59,6.58,6.19,13.76,12.7,18.34,1.51,1.06,3.57,2.72,2.41,4.9-1.45,2.71-4.28,1.92-6.35,1C253.43,46.14,246.25,43.2,243.48,35.14Z"/><text class="cls-2" transform="translate(19.8 310.31)">SWAN</text><text class="cls-3" transform="translate(0 349.85)">Warehouse Portal</text><text class="cls-4" transform="translate(123.29 395.85)">V 2.0</text></g></g></svg>