<svg xmlns="http://www.w3.org/2000/svg" viewBox="0 0 336.78 294.35"><defs><style>.cls-1{opacity:0.34;}.cls-2{fill:none;stroke:#1321d3;stroke-miterlimit:10;stroke-width:1.52px;}.cls-3{font-size:104.14px;fill:#1321d3;font-family:Poppins-Black, Poppins;font-weight:800;}.cls-4{letter-spacing:-0.05em;}.cls-5{font-size:33.98px;fill:#1b1464;font-family:Poppins-Regular, Poppins;}</style></defs><title>Asset 6</title><g id="Layer_2" data-name="Layer 2"><g id="Layer_1-2" data-name="Layer 1"><g class="cls-1"><path class="cls-2" d="M269.52,54.07c-6.07-5-12-10.23-18.26-15-10-7.63-21-11.77-30.8-.57S211.2,63,222,72.85c14.82,13.43,31.36,25,47.1,37.37,46.74,36.86,51,118.7,8.37,159.35-12.77,12.18-28.11,20.33-45.27,21.66-53.53,4.18-107.11,3.57-159.8-8C34.6,274.86,12,255.2,3,225.83c13.92-3.49,27.07,14.13,42.27.34-8.91-4.39-19-7.31-23.23-18.12,10.32-3.57,21.35,3.22,31.79-2.24-.74-5.76-8.91-6.33-8.46-13.93C68.08,190,83.84,174.79,100.8,161.1c39.73-32.06,83.05-37.37,120-15.57,19,11.19,30.4,28.95,40.5,48.68,10.93-27.31,5.31-54.67-14-72.67-10.37-9.67-23-15.72-35.12-22.67-24.22-13.88-32.41-38.55-22-64.17S226.37-4.43,252.37,2.62c18.4,5,24.86,20,29.34,36.31C282.37,47.73,276.35,51.23,269.52,54.07Z"/><path class="cls-2" d="M269.52,54.07c6.83-2.84,12.85-6.34,12.19-15.14,5.44,10,9.39,20.88,19.26,27.82,2.29,1.61,5.41,4.14,3.65,7.44-2.2,4.12-6.49,2.91-9.63,1.44C284.62,70.76,273.73,66.3,269.52,54.07Z"/></g><text class="cls-3" transform="translate(0 179.19)">S<tspan class="cls-4" x="65.09" y="0">W</tspan><tspan x="174.44" y="0">AN</tspan></text><text class="cls-5" transform="translate(0 219.14)">WAREHOUSE PORTAL</text></g></g></svg>